<svg width="309" height="85" viewBox="0 0 309 85" fill="none" xmlns="http://www.w3.org/2000/svg">
<path d="M0.576172 43.0523V8.17822H24.0753V14.2574H7.94946V22.5672H22.8663V28.6463H7.94946V36.9732H24.1434V43.0523H0.576172Z" fill="white" fill-opacity="0.9"/>
<path d="M78.3798 43.0523V8.17822H92.1388C94.7838 8.17822 97.0373 8.6834 98.899 9.69375C100.761 10.6927 102.18 12.0834 103.156 13.8657C104.144 15.6366 104.638 17.6801 104.638 19.9959C104.638 22.3118 104.138 24.3552 103.139 26.1261C102.14 27.8971 100.693 29.2764 98.7969 30.264C96.9124 31.2517 94.6306 31.7455 91.9514 31.7455H83.1818V25.8366H90.7595C92.1785 25.8366 93.3478 25.5926 94.2673 25.1044C95.1982 24.6049 95.8907 23.9181 96.3448 23.044C96.8102 22.1585 97.0429 21.1425 97.0429 19.9959C97.0429 18.838 96.8102 17.8276 96.3448 16.9649C95.8907 16.0907 95.1982 15.4153 94.2673 14.9385C93.3364 14.4503 92.1558 14.2063 90.7254 14.2063H85.7531V43.0523H78.3798Z" fill="white" fill-opacity="0.9"/>
<path d="M109.427 43.0523V8.17822H132.926V14.2574H116.8V22.5672H131.717V28.6463H116.8V36.9732H132.994V43.0523H109.427Z" fill="white" fill-opacity="0.9"/>
<path d="M138.788 43.0523V8.17822H152.547C155.181 8.17822 157.428 8.64934 159.29 9.59158C161.163 10.5225 162.588 11.845 163.564 13.5592C164.552 15.262 165.046 17.2657 165.046 19.5702C165.046 21.8861 164.546 23.8784 163.547 25.5472C162.548 27.2046 161.101 28.476 159.205 29.3615C157.321 30.247 155.039 30.6897 152.36 30.6897H143.147V24.7639H151.168C152.575 24.7639 153.745 24.5709 154.675 24.1849C155.606 23.7989 156.299 23.22 156.753 22.448C157.218 21.676 157.451 20.7168 157.451 19.5702C157.451 18.4123 157.218 17.436 156.753 16.6413C156.299 15.8467 155.601 15.245 154.658 14.8363C153.728 14.4163 152.553 14.2063 151.134 14.2063H146.161V43.0523H138.788ZM157.621 27.1819L166.289 43.0523H158.149L149.669 27.1819H157.621Z" fill="white" fill-opacity="0.9"/>
<path d="M177.63 8.17822V43.0523H170.256V8.17822H177.63Z" fill="white" fill-opacity="0.9"/>
<path d="M183.696 43.0523V8.17822H207.195V14.2574H191.069V22.5672H205.986V28.6463H191.069V36.9732H207.263V43.0523H183.696Z" fill="white" fill-opacity="0.9"/>
<path d="M243.283 49.6291V84.5032H236.914L221.742 62.5537H221.487V84.5032H214.113V49.6291H220.584L235.637 71.5617H235.944V49.6291H243.283Z" fill="white" fill-opacity="0.9"/>
<path d="M280.145 61.8385H272.687C272.55 60.8735 272.272 60.0164 271.852 59.2672C271.432 58.5066 270.893 57.8595 270.235 57.326C269.576 56.7924 268.816 56.3837 267.953 56.0999C267.101 55.8161 266.176 55.6742 265.177 55.6742C263.372 55.6742 261.8 56.1226 260.46 57.0195C259.121 57.9049 258.082 59.1991 257.344 60.9019C256.606 62.5934 256.237 64.6482 256.237 67.0662C256.237 69.5523 256.606 71.6411 257.344 73.3326C258.093 75.0241 259.138 76.3012 260.477 77.164C261.817 78.0268 263.366 78.4582 265.126 78.4582C266.114 78.4582 267.028 78.3276 267.868 78.0665C268.719 77.8054 269.474 77.4251 270.132 76.9256C270.791 76.4148 271.336 75.7961 271.767 75.0695C272.21 74.343 272.516 73.5143 272.687 72.5834L280.145 72.6174C279.952 74.2181 279.47 75.762 278.698 77.2492C277.937 78.7249 276.91 80.0475 275.616 81.2168C274.333 82.3747 272.8 83.2942 271.018 83.9754C269.247 84.6451 267.243 84.98 265.007 84.98C261.896 84.98 259.115 84.2762 256.663 82.8685C254.222 81.4608 252.292 79.4231 250.873 76.7553C249.466 74.0876 248.762 70.8578 248.762 67.0662C248.762 63.2632 249.477 60.0278 250.907 57.36C252.338 54.6922 254.279 52.6602 256.731 51.2639C259.183 49.8562 261.942 49.1523 265.007 49.1523C267.028 49.1523 268.901 49.4362 270.626 50.0038C272.363 50.5714 273.901 51.4001 275.241 52.4899C276.58 53.5684 277.67 54.8909 278.51 56.4575C279.362 58.0241 279.907 59.8178 280.145 61.8385Z" fill="white" fill-opacity="0.9"/>
<path d="M285.432 84.5032V49.6291H308.932V55.7083H292.806V64.0181H307.723V70.0972H292.806V78.4241H309V84.5032H285.432Z" fill="white" fill-opacity="0.9"/>
<path d="M12.9388 84.9791H0.576172V50.105H13.0409C16.5488 50.105 19.5685 50.8031 22.1 52.1995C24.6316 53.5844 26.5785 55.5768 27.9408 58.1764C29.3144 60.7761 30.0012 63.8866 30.0012 67.508C30.0012 71.1407 29.3144 74.2626 27.9408 76.8736C26.5785 79.4846 24.6202 81.4883 22.066 82.8846C19.5231 84.2809 16.4807 84.9791 12.9388 84.9791ZM7.94946 78.6616H12.6323C14.8119 78.6616 16.6453 78.2756 18.1324 77.5036C19.6309 76.7203 20.7548 75.5113 21.504 73.8766C22.2646 72.2305 22.6449 70.1076 22.6449 67.508C22.6449 64.931 22.2646 62.8252 21.504 61.1905C20.7548 59.5557 19.6366 58.3524 18.1495 57.5804C16.6623 56.8085 14.8289 56.4225 12.6493 56.4225H7.94946V78.6616Z" fill="white" fill-opacity="0.9"/>
<path d="M39.5073 84.9791H31.6061L43.6452 50.105H53.147L65.1691 84.9791H57.2679L48.5323 58.0743H48.2599L39.5073 84.9791ZM39.0135 71.2712H57.6766V77.0268H39.0135V71.2712Z" fill="white" fill-opacity="0.9"/>
<path d="M98.5361 50.105V84.9791H92.1675L76.9953 63.0295H76.7398V84.9791H69.3665V50.105H75.8373L90.8904 72.0375H91.1969V50.105H98.5361Z" fill="white" fill-opacity="0.9"/>
<rect x="107.785" y="63.5405" width="96.0844" height="7.0513" fill="#E2481C"/>
<rect x="214.113" y="22.0913" width="94.887" height="7.0513" fill="#E2481C"/>
<rect x="31.1616" y="35.9094" width="7.0513" height="7.0513" fill="#E2481C"/>
<rect x="38.2119" y="28.8579" width="7.0513" height="7.0513" fill="#E2481C"/>
<rect x="45.2649" y="21.8049" width="7.0513" height="7.0513" fill="#E2481C"/>
<rect x="52.3145" y="28.8579" width="7.0513" height="7.0513" fill="#E2481C"/>
<rect x="59.3677" y="35.9094" width="7.0513" height="7.0513" fill="#E2481C"/>
<rect x="38.2119" y="14.7551" width="7.0513" height="7.0513" fill="#E2481C"/>
<rect x="31.1616" y="7.70361" width="7.0513" height="7.0513" fill="#E2481C"/>
<rect x="52.3145" y="14.7551" width="7.0513" height="7.0513" fill="#E2481C"/>
<rect x="59.3677" y="7.70361" width="7.0513" height="7.0513" fill="#E2481C"/>
<rect x="66.4177" y="0.652832" width="7.0513" height="7.0513" fill="#E2481C"/>
<rect x="66.4177" y="7.70264" width="7.0513" height="7.0513" fill="#E2481C"/>
<rect x="66.4177" y="14.7551" width="7.0513" height="7.0513" fill="#E2481C"/>
<rect x="59.3677" y="0.650391" width="7.0513" height="7.0513" fill="#E2481C"/>
<rect x="52.3145" y="0.650391" width="7.0513" height="7.0513" fill="#E2481C"/>
</svg>
